<svg xmlns="http://www.w3.org/2000/svg" width="230" height="50" viewBox="0 0 230 50"><defs><filter id="cxpba" width="210" height="30" x="10" y="10" filterUnits="userSpaceOnUse"><feOffset dy="1" in="SourceGraphic" result="FeOffset1022Out"/><feGaussianBlur in="FeOffset1022Out" result="FeGaussianBlur1023Out" stdDeviation="0 0"/></filter><clipPath id="cxpbb"><path fill="#fff" d="M20 20c25.434 0 25.89 9 48 9 22.109 0 29.213-9 47-9s29.047 9 47 9 24.229-9 48-9"/></clipPath></defs><g><g><g filter="url(#cxpba)"><path fill="none" stroke="#3d3029" stroke-width="2" d="M20 20c25.434 0 25.89 9 48 9 22.109 0 29.213-9 47-9s29.047 9 47 9 24.229-9 48-9"/></g><path fill="none" stroke="#fff" stroke-dasharray="8 16" stroke-miterlimit="20" stroke-width="4" d="M20 20c25.434 0 25.89 9 48 9 22.109 0 29.213-9 47-9s29.047 9 47 9 24.229-9 48-9" clip-path="url(&quot;#cxpbb&quot;)"/></g></g></svg>